# xmcd
#
# Track frame offsets:
#	150
#	19133
#	39583
#	60820
#	89480
#	111363
#	129600
#	152818
#	178070
#	198065
#
# Disc length: 2962 seconds
#
# Revision: 4294180831
# Processed by: cddbd v1.5.2PL0 Copyright (c) Steve Scherf et al.
# Submitted via: EZCDAudioConverter 8.0.2.1
#
DISCID=7e0b900a
DTITLE=Various Artist - Có Nhớ Chăng Em
DYEAR=1993
DGENRE=World Pop
TTITLE0=Thanh Tuyền - Hương tình cũ
TTITLE1=Tuấn Vũ - Giã từ vũ khí
TTITLE2=Giao Linh - Thương về vùng hỏa tuyến
TTITLE3=Thanh Phong - Có Nhớ Chăng Em
TTITLE4=Nhật Linh - Xin đừng yêu tôi
TTITLE5=Thanh Tuyền - Biển tình
TTITLE6=Thanh Phong - Tiếng còi trong sương đêm
TTITLE7=Ngọc Bích - Thế là hết
TTITLE8=Nhật Linh - Đọan cuối đêm mưa
TTITLE9=Thanh Phong, Thanh Tuyen - Ngậm ngãi tìm trầm
EXTD=
EXTT0=
EXTT1=
EXTT2=
EXTT3=
EXTT4=
EXTT5=
EXTT6=
EXTT7=
EXTT8=
EXTT9=
PLAYORDER=
